HIERARCHY
ROOT joint_Root
{
	OFFSET 0.0 0.0 0.0
	CHANNELS 6 Xposition Yposition Zposition Zrotation Xrotation Yrotation 
	JOINT Hips
	{
		OFFSET 4.5925 91.4895 -427.239
		CHANNELS 6 Xposition Yposition Zposition Zrotation Xrotation Yrotation 
		JOINT Spine
		{
			OFFSET 15.7357 0.0 0.0
			CHANNELS 6 Xposition Yposition Zposition Zrotation Xrotation Yrotation 
			JOINT Chest
			{
				OFFSET 8.98455 -0.406207 0.0
				CHANNELS 6 Xposition Yposition Zposition Zrotation Xrotation Yrotation 
				JOINT Neck
				{
					OFFSET 16.3773 0.0 0.0
					CHANNELS 6 Xposition Yposition Zposition Zrotation Xrotation Yrotation 
					JOINT Head
					{
						OFFSET 6.45672 0.0 0.0
						CHANNELS 6 Xposition Yposition Zposition Zrotation Xrotation Yrotation 
						End Site
						{
							OFFSET 0.0 0.0 0.0
						}
					}
				}
				JOINT Shoulder_L
				{
					OFFSET 12.9942 -0.242716 4.98039
					CHANNELS 6 Xposition Yposition Zposition Zrotation Xrotation Yrotation 
					JOINT UpperArm_L
					{
						OFFSET 5.34809 0.0 0.0
						CHANNELS 6 Xposition Yposition Zposition Zrotation Xrotation Yrotation 
						JOINT LowerArm_L
						{
							OFFSET 24.3286 1.87007e-05 0.0
							CHANNELS 6 Xposition Yposition Zposition Zrotation Xrotation Yrotation 
							JOINT Hand_L
							{
								OFFSET 22.2916 0.0 0.0
								CHANNELS 6 Xposition Yposition Zposition Zrotation Xrotation Yrotation 
								End Site
								{
									OFFSET 0.0 0.0 0.0
								}
							}
						}
					}
				}
				JOINT Shoulder_R
				{
					OFFSET 12.9945 -0.242716 -4.98039
					CHANNELS 6 Xposition Yposition Zposition Zrotation Xrotation Yrotation 
					JOINT UpperArm_R
					{
						OFFSET -5.34813 0.0 0.0
						CHANNELS 6 Xposition Yposition Zposition Zrotation Xrotation Yrotation 
						JOINT LowerArm_R
						{
							OFFSET -24.3289 0.000322201 0.0
							CHANNELS 6 Xposition Yposition Zposition Zrotation Xrotation Yrotation 
							JOINT Hand_R
							{
								OFFSET -22.2915 -0.000108084 0.0
								CHANNELS 6 Xposition Yposition Zposition Zrotation Xrotation Yrotation 
								End Site
								{
									OFFSET 0.0 0.0 0.0
								}
							}
						}
					}
				}
			}
		}
		JOINT UpperLeg_L
		{
			OFFSET -2.19248 -6.46944 0.0
			CHANNELS 6 Xposition Yposition Zposition Zrotation Xrotation Yrotation 
			JOINT LowerLeg_L
			{
				OFFSET 39.0811 0.0 -1.23785e-05
				CHANNELS 6 Xposition Yposition Zposition Zrotation Xrotation Yrotation 
				JOINT Foot_L
				{
					OFFSET 40.9854 0.0 -1.26872e-05
					CHANNELS 6 Xposition Yposition Zposition Zrotation Xrotation Yrotation 
					JOINT Toes_L
					{
						OFFSET 11.7543 0.0 0.0
						CHANNELS 6 Xposition Yposition Zposition Zrotation Xrotation Yrotation 
						End Site
						{
							OFFSET 0.0 0.0 0.0
						}
					}
				}
			}
		}
		JOINT UpperLeg_R
		{
			OFFSET -2.19251 6.46944 0.0
			CHANNELS 6 Xposition Yposition Zposition Zrotation Xrotation Yrotation 
			JOINT LowerLeg_R
			{
				OFFSET -39.0811 -0.00228153 -0.0401928
				CHANNELS 6 Xposition Yposition Zposition Zrotation Xrotation Yrotation 
				JOINT Foot_R
				{
					OFFSET -40.9854 0.0 0.0
					CHANNELS 6 Xposition Yposition Zposition Zrotation Xrotation Yrotation 
					JOINT Toes_R
					{
						OFFSET -11.7543 0.0 0.0
						CHANNELS 6 Xposition Yposition Zposition Zrotation Xrotation Yrotation 
						End Site
						{
							OFFSET 0.0 0.0 0.0
						}
					}
				}
			}
		}
	}
}
MOTION
Frames:	8
Frame Time:	0.0333333
0.000000 0.000000 0.000000 0.000000 0.000000 -0.000000 -5.041850 83.055300 -2.162940 86.078200 2.098240 12.474500 15.735700 0.000005 -0.000001 83.360800 80.190200 -82.097100 8.984550 -0.406207 -0.000000 11.754200 -2.205450 2.753820 16.377300 -0.000001 -0.000001 -4.585030 -2.800050 1.909940 6.456720 -0.000001 -0.000000 -5.273140 0.278420 -2.646890 12.994200 -0.242716 4.980390 -91.024700 3.824970 -74.991200 5.348090 -0.000007 -0.000001 -67.557300 26.078100 -9.048960 24.328600 0.000019 0.000005 10.405600 16.769500 -32.475300 22.291600 -0.000001 0.000005 16.647200 5.250570 1.417210 12.994500 -0.242716 -4.980390 88.145400 10.638900 -80.052200 -5.348130 -0.000001 -0.000004 -53.575300 22.303000 -10.564700 -24.328900 0.000322 -0.000009 0.354756 0.512182 -34.782300 -22.291500 -0.000108 -0.000004 17.155100 5.403040 -3.030910 -2.192480 -6.469440 -0.000000 -166.051000 -12.465100 -14.283100 39.081100 -0.000007 -0.000012 -0.220676 0.126499 60.178400 40.985400 -0.000006 -0.000013 2.586750 14.955500 -83.340600 11.754300 -0.000000 0.000003 -0.000101 -0.001035 -16.617300 -2.192510 6.469440 -0.000001 -177.757000 16.600000 168.577000 -39.081100 -0.002282 -0.040193 0.080628 -0.047741 58.339600 -40.985400 0.000008 0.000006 10.442800 3.744750 -85.361800 -11.754300 -0.000006 -0.000006 -0.625155 -0.771524 -16.402800
0.000000 0.000000 0.000000 0.000000 0.000000 -0.000000 -5.688420 84.166200 -1.835470 85.181300 4.682380 12.296300 15.735700 0.000005 -0.000001 82.555500 80.867900 -81.726200 8.984550 -0.406207 -0.000000 10.368100 -2.331760 1.869290 16.377300 -0.000001 -0.000001 -3.854150 -3.294960 2.155380 6.456720 -0.000001 -0.000000 -4.071890 -0.720708 -1.131480 12.994200 -0.242716 4.980390 -90.903500 3.332100 -74.819400 5.348090 -0.000007 -0.000001 -68.981900 25.181900 -8.185150 24.328600 0.000019 0.000005 8.958980 16.104300 -29.611100 22.291600 -0.000001 0.000005 16.114500 5.202920 2.648030 12.994500 -0.242716 -4.980390 88.170400 10.058300 -79.634900 -5.348130 -0.000001 -0.000004 -51.806200 16.830300 -11.816900 -24.328900 0.000322 -0.000009 0.438964 0.593027 -36.578700 -22.291500 -0.000108 -0.000004 12.770900 5.383610 -2.412270 -2.192480 -6.469440 -0.000000 -165.266000 -10.579200 -13.634300 39.081100 -0.000007 -0.000012 -0.187544 0.121623 57.037400 40.985400 -0.000006 -0.000013 2.104680 15.918300 -81.598900 11.754300 -0.000000 0.000003 -0.000114 -0.001150 -16.621600 -2.192510 6.469440 -0.000001 -176.818000 18.900800 170.531000 -39.081100 -0.002282 -0.040193 0.078719 -0.053952 54.446600 -40.985400 0.000008 0.000006 10.444300 3.483290 -83.788200 -11.754300 -0.000006 -0.000006 -0.652037 -0.805143 -16.466400
0.000000 0.000000 0.000000 0.000000 0.000000 -0.000000 -6.008010 86.320300 -1.345870 85.065800 6.380590 12.026600 15.735700 0.000005 -0.000001 83.841300 81.693800 -83.826400 8.984550 -0.406207 -0.000000 8.753760 -1.773170 0.165535 16.377300 -0.000001 -0.000001 -2.550030 -3.988340 2.549440 6.456720 -0.000001 -0.000000 -3.175470 -2.180240 0.574469 12.994200 -0.242716 4.980390 -90.851200 3.047760 -74.387900 5.348090 -0.000007 -0.000001 -69.564300 24.529900 -6.780210 24.328600 0.000019 0.000005 8.413980 16.510500 -27.496300 22.291600 -0.000001 0.000005 13.636600 5.191290 2.935590 12.994500 -0.242716 -4.980390 88.295900 8.762770 -78.949400 -5.348130 -0.000001 -0.000004 -45.818300 12.222900 -16.065000 -24.328900 0.000322 -0.000009 1.226320 1.479200 -39.684400 -22.291500 -0.000108 -0.000004 10.185000 5.391250 -2.655470 -2.192480 -6.469440 -0.000000 -165.605000 -8.717310 -10.695400 39.081100 -0.000007 -0.000012 -0.187526 0.156727 50.113200 40.985400 -0.000006 -0.000013 0.927309 15.751600 -78.177100 11.754300 -0.000000 0.000003 -0.000082 -0.000872 -16.611100 -2.192510 6.469440 -0.000001 -176.911000 20.428600 174.210000 -39.081100 -0.002282 -0.040193 0.062751 -0.055178 47.155100 -40.985400 0.000008 0.000006 10.224900 4.218110 -80.344400 -11.754300 -0.000006 -0.000006 -0.641729 -0.790345 -16.758900
0.000000 0.000000 0.000000 0.000000 0.000000 -0.000000 -5.908400 88.590800 -1.166900 85.990900 6.690970 10.082300 15.735700 0.000005 -0.000001 86.649700 83.139000 -87.724700 8.984550 -0.406207 -0.000000 5.926480 -0.782578 -2.107090 16.377300 -0.000001 -0.000001 -0.676832 -4.271060 2.813720 6.456720 -0.000001 -0.000000 -2.094790 -3.557210 1.888790 12.994200 -0.242716 4.980390 -90.714900 2.401380 -73.416600 5.348090 -0.000007 -0.000001 -70.298500 22.775300 -4.061900 24.328600 0.000019 0.000005 9.450830 18.987500 -27.094900 22.291600 -0.000001 0.000005 10.886900 5.217000 2.289490 12.994500 -0.242716 -4.980390 88.728400 6.447720 -78.818300 -5.348130 -0.000001 -0.000004 -38.889900 3.141090 -22.159600 -24.328900 0.000322 -0.000009 2.175830 2.309150 -43.338900 -22.291500 -0.000108 -0.000004 10.804000 5.383370 -2.408230 -2.192480 -6.469440 -0.000000 -167.409000 -8.142800 -8.202860 39.081100 -0.000007 -0.000012 -0.160436 0.180968 41.559000 40.985400 -0.000006 -0.000013 -0.353939 14.581700 -73.861200 11.754300 -0.000000 0.000003 -0.000051 -0.000574 -16.599800 -2.192510 6.469440 -0.000001 -177.758000 21.355500 176.424000 -39.081100 -0.002282 -0.040193 0.041532 -0.047071 39.098300 -40.985400 0.000008 0.000006 9.878560 6.257200 -76.058400 -11.754300 -0.000006 -0.000006 -0.539311 -0.662245 -17.278800
0.000000 0.000000 0.000000 0.000000 0.000000 -0.000000 -5.495450 90.309400 -1.277180 86.943600 6.255030 7.566290 15.735700 0.000005 -0.000001 89.937400 84.588900 -91.860400 8.984550 -0.406207 -0.000000 3.060180 0.067094 -3.843690 16.377300 -0.000001 -0.000001 0.669653 -3.872830 2.941920 6.456720 -0.000001 -0.000000 -1.282470 -4.586140 2.025970 12.994200 -0.242716 4.980390 -90.654300 1.999910 -71.880800 5.348090 -0.000007 -0.000001 -70.004500 21.111700 -1.181520 24.328600 0.000019 0.000005 9.986370 19.617200 -27.675400 22.291600 -0.000001 0.000005 8.774640 5.221450 2.175300 12.994500 -0.242716 -4.980390 89.381700 3.364930 -79.583700 -5.348130 -0.000001 -0.000004 -31.101400 -9.354430 -29.618100 -24.328900 0.000322 -0.000009 -0.959271 -0.915753 -46.280600 -22.291500 -0.000108 -0.000004 15.876300 5.353800 -1.495200 -2.192480 -6.469440 -0.000000 -169.341000 -8.281420 -6.675650 39.081100 -0.000007 -0.000012 -0.131290 0.195716 33.854700 40.985400 -0.000006 -0.000013 -1.170090 13.299800 -69.947300 11.754300 -0.000000 0.000003 -0.000043 -0.000498 -16.596900 -2.192510 6.469440 -0.000001 -178.662000 22.748200 177.253000 -39.081100 -0.002282 -0.040193 0.026128 -0.036155 32.270700 -40.985400 0.000008 0.000006 9.417390 9.414240 -72.159600 -11.754300 -0.000006 -0.000006 -0.567840 -0.696153 -17.723800
0.000000 0.000000 0.000000 0.000000 0.000000 -0.000000 -4.954290 91.279000 -1.311500 87.557000 5.086270 6.337460 15.735700 0.000005 -0.000001 100.062000 85.206400 -102.320000 8.984550 -0.406207 -0.000000 1.713990 1.793220 -4.540640 16.377300 -0.000001 -0.000001 0.799243 -4.105160 2.682900 6.456720 -0.000001 -0.000000 -1.172300 -5.443490 1.769940 12.994200 -0.242716 4.980390 -90.863000 2.484000 -70.836100 5.348090 -0.000007 -0.000001 -68.525600 20.064800 0.832659 24.328600 0.000019 0.000005 9.567190 18.520900 -27.950700 22.291600 -0.000001 0.000005 8.155960 5.232460 1.891710 12.994500 -0.242716 -4.980390 90.119100 -0.745791 -80.907900 -5.348130 -0.000001 -0.000004 -22.321600 -24.937300 -34.753100 -24.328900 0.000322 -0.000009 -6.443970 -5.726890 -48.533200 -22.291500 -0.000108 -0.000004 24.065200 5.361320 -1.705670 -2.192480 -6.469440 -0.000000 -170.449000 -9.717130 -4.911960 39.081100 -0.000007 -0.000012 -0.101561 0.185748 28.668700 40.985400 -0.000006 -0.000013 -1.303070 13.044900 -67.482500 11.754300 -0.000000 0.000003 -0.000041 -0.000479 -16.596200 -2.192510 6.469440 -0.000001 -179.703000 23.986700 178.590000 -39.081100 -0.002282 -0.040193 0.015964 -0.024389 27.428400 -40.985400 0.000008 0.000006 9.134930 12.605000 -70.022400 -11.754300 -0.000006 -0.000006 -0.254896 -0.325180 -17.819700
0.000000 0.000000 0.000000 0.000000 0.000000 -0.000000 -4.722170 91.732900 -1.558010 87.706800 5.118560 5.237860 15.735700 0.000005 -0.000001 107.855000 85.310500 -110.158000 8.984550 -0.406207 -0.000000 1.227770 3.005720 -4.635520 16.377300 -0.000001 -0.000001 0.148954 -4.855530 2.944840 6.456720 -0.000001 -0.000000 -2.370810 -6.199480 0.653018 12.994200 -0.242716 4.980390 -91.375700 3.873130 -70.428600 5.348090 -0.000007 -0.000001 -65.367000 19.199100 1.736930 24.328600 0.000019 0.000005 9.562190 18.000000 -28.596500 22.291600 -0.000001 0.000005 9.025030 5.231860 1.907370 12.994500 -0.242716 -4.980390 90.984000 -6.533620 -81.416700 -5.348130 -0.000001 -0.000004 -17.918000 -43.014300 -39.340700 -24.328900 0.000322 -0.000009 -8.453980 -7.424880 -48.990500 -22.291500 -0.000108 -0.000004 27.973500 5.462480 -5.087080 -2.192480 -6.469440 -0.000000 -170.854000 -11.102200 -4.868240 39.081100 -0.000007 -0.000012 -0.079079 0.161446 26.096500 40.985400 -0.000006 -0.000013 -1.163160 14.074200 -65.982200 11.754300 -0.000000 0.000003 -0.000041 -0.000472 -16.595900 -2.192510 6.469440 -0.000001 -179.757000 25.102900 179.057000 -39.081100 -0.002282 -0.040193 0.008441 -0.011441 24.139800 -40.985400 0.000008 0.000006 8.834960 14.036000 -69.056100 -11.754300 -0.000006 -0.000006 -0.001747 -0.025507 -17.610300
0.000000 0.000000 0.000000 0.000000 0.000000 -0.000000 -4.660450 91.975900 -1.721100 87.972200 6.500610 4.767170 15.735700 0.000005 -0.000001 108.438000 85.179000 -110.834000 8.984550 -0.406207 -0.000000 1.454360 3.179950 -4.829320 16.377300 -0.000001 -0.000001 -0.189705 -6.194810 4.542900 6.456720 -0.000001 -0.000000 -4.370220 -6.055050 -1.492910 12.994200 -0.242716 4.980390 -91.911700 5.348450 -70.298400 5.348090 -0.000007 -0.000001 -61.786100 17.598600 2.055940 24.328600 0.000019 0.000005 10.346900 19.358000 -28.846500 22.291600 -0.000001 0.000005 11.093700 5.227390 2.022490 12.994500 -0.242716 -4.980390 92.376600 -12.592800 -79.223700 -5.348130 -0.000001 -0.000004 -20.699900 -58.144200 -49.323200 -24.328900 0.000322 -0.000009 -8.067170 -7.380940 -47.807600 -22.291500 -0.000108 -0.000004 29.354800 5.549940 -8.700520 -2.192480 -6.469440 -0.000000 -171.212000 -11.987100 -4.912420 39.081100 -0.000007 -0.000012 -0.060236 0.132093 24.513500 40.985400 -0.000006 -0.000013 -0.864772 16.069500 -64.902600 11.754300 -0.000000 0.000003 -0.000043 -0.000497 -16.596900 -2.192510 6.469440 -0.000001 -179.966000 26.368100 179.848000 -39.081100 -0.002282 -0.040193 -0.000877 0.010502 21.771900 -40.985400 0.000008 0.000006 8.712080 14.042300 -68.722900 -11.754300 -0.000006 -0.000006 -0.001933 -0.027874 -17.706600
